<svg xmlns="http://www.w3.org/2000/svg" xmlns:xlink="http://www.w3.org/1999/xlink" width="267" height="70" viewBox="0 0 267 70">
  <defs>
    <clipPath id="clip-path">
      <rect width="267" height="70" fill="none"/>
    </clipPath>
  </defs>
  <g id="Social_Buttons" data-name="Social Buttons" clip-path="url(#clip-path)">
    <g id="Repeat_Grid_1" data-name="Repeat Grid 1" clip-path="url(#clip-path)">
      <g transform="translate(-163 -442)">
        <g id="Rectangle_3" data-name="Rectangle 3" transform="translate(163 442)" fill="#231f1f" stroke="#707070" stroke-width="1">
          <rect width="70" height="70" stroke="none"/>
          <rect x="0.5" y="0.5" width="69" height="69" fill="none"/>
        </g>
      </g>
      <g transform="translate(-73 -442)">
        <g id="Rectangle_3-2" data-name="Rectangle 3" transform="translate(163 442)" fill="#231f1f" stroke="#707070" stroke-width="1">
          <rect width="70" height="70" stroke="none"/>
          <rect x="0.5" y="0.5" width="69" height="69" fill="none"/>
        </g>
      </g>
      <g transform="translate(17 -442)">
        <g id="Rectangle_3-3" data-name="Rectangle 3" transform="translate(163 442)" fill="#231f1f" stroke="#707070" stroke-width="1">
          <rect width="70" height="70" stroke="none"/>
          <rect x="0.5" y="0.5" width="69" height="69" fill="none"/>
        </g>
      </g>
    </g>
    <path id="Path_353" data-name="Path 353" d="M267.948,373.941h-9.015v28.466H245.485V373.941H239.13V363.91h6.355V357.4a12.62,12.62,0,0,1,1.034-5.146,10.232,10.232,0,0,1,4.064-4.755,15.627,15.627,0,0,1,8.424-2.084l9.975.065v9.771h-7.241a3.132,3.132,0,0,0-1.847.521,2.575,2.575,0,0,0-.961,2.215v5.928h10.2Z" transform="translate(-216.131 -339.401)" fill="#fff"/>
    <path id="iconmonstr-github-1" d="M28.048,0a27.758,27.758,0,0,0-8.866,54.157c1.4.256,1.853-.6,1.853-1.336V47.642c-7.8,1.683-9.425-3.277-9.425-3.277A7.4,7.4,0,0,0,8.495,40.3c-2.546-1.725.194-1.689.194-1.689a5.872,5.872,0,0,1,4.3,2.864,6.007,6.007,0,0,0,8.162,2.309,5.878,5.878,0,0,1,1.785-3.718c-6.23-.707-12.778-3.089-12.778-13.733a10.7,10.7,0,0,1,2.887-7.454,9.909,9.909,0,0,1,.269-7.355s2.357-.743,7.715,2.848a26.829,26.829,0,0,1,14.048,0c5.347-3.591,7.7-2.848,7.7-2.848a9.9,9.9,0,0,1,.275,7.355,10.671,10.671,0,0,1,2.887,7.458c0,10.672-6.561,13.022-12.806,13.71a6.616,6.616,0,0,1,1.924,5.144v7.626c0,.739.449,1.6,1.872,1.333A27.757,27.757,0,0,0,28.048,0Z" transform="translate(96.999 7.002)" fill="#fff"/>
    <path id="Path_375" data-name="Path 375" d="M133.355,633.073a3.714,3.714,0,0,1,2.686,1.077,3.494,3.494,0,0,1,1.109,2.594v43.714a3.394,3.394,0,0,1-1.109,2.565,3.7,3.7,0,0,1-2.628,1.051H90.086a3.688,3.688,0,0,1-2.628-1.051,3.39,3.39,0,0,1-1.109-2.565V636.744a3.494,3.494,0,0,1,1.109-2.594,3.712,3.712,0,0,1,2.686-1.077h43.21Zm-32.291,15.415a4.075,4.075,0,0,0,0-5.712,4.249,4.249,0,0,0-3.095-1.135,4.354,4.354,0,0,0-3.124,1.135,3.775,3.775,0,0,0-1.2,2.856,3.816,3.816,0,0,0,1.168,2.856,4.163,4.163,0,0,0,3.036,1.136h.058a4.317,4.317,0,0,0,3.153-1.137Zm.7,4.285H94.115V675.8h7.649Zm27.619,9.792a11.153,11.153,0,0,0-2.511-7.809,8.178,8.178,0,0,0-13.2,1.282v-3.264h-7.649q.057,1.339,0,12.3V675.8h7.649V662.915a5.714,5.714,0,0,1,.234-1.865,4.643,4.643,0,0,1,1.4-1.922,3.884,3.884,0,0,1,2.569-.874,3.368,3.368,0,0,1,2.978,1.457,6.788,6.788,0,0,1,.876,3.732V675.8h7.649Z" transform="translate(104.65 -624.072)" fill="#fff"/>
  </g>
</svg>
